<?xml version="1.0" encoding="UTF-8" standalone="no"?>
<!DOCTYPE svg PUBLIC "-//W3C//DTD SVG 1.1//EN"
 "http://www.w3.org/Graphics/SVG/1.1/DTD/svg11.dtd">
<!-- Generated by graphviz version 10.0.1 (20240210.2158)
 -->
<!-- Title: ArvoreBinaria Pages: 1 -->
<svg width="314pt" height="333pt"
 viewBox="0.00 0.00 314.00 333.26" xmlns="http://www.w3.org/2000/svg" xmlns:xlink="http://www.w3.org/1999/xlink">
<g id="graph0" class="graph" transform="scale(1 1) rotate(0) translate(4 329.26)">
<title>ArvoreBinaria</title>
<polygon fill="white" stroke="none" points="-4,4 -4,-329.26 310,-329.26 310,4 -4,4"/>
<!-- A -->
<g id="node1" class="node">
<title>A</title>
<ellipse fill="#9370db" stroke="black" cx="126" cy="-307.26" rx="18" ry="18"/>
<text text-anchor="middle" x="126" y="-301.83" font-family="Times New Roman,serif" font-size="14.00">A</text>
</g>
<!-- B -->
<g id="node2" class="node">
<title>B</title>
<ellipse fill="#9370db" stroke="black" cx="99" cy="-235.26" rx="18" ry="18"/>
<text text-anchor="middle" x="99" y="-229.83" font-family="Times New Roman,serif" font-size="14.00">B</text>
</g>
<!-- A&#45;&gt;B -->
<g id="edge1" class="edge">
<title>A&#45;&gt;B</title>
<path fill="none" stroke="black" d="M119.74,-290.02C116.64,-281.98 112.81,-272.07 109.3,-262.95"/>
<polygon fill="black" stroke="black" points="112.64,-261.89 105.77,-253.82 106.11,-264.41 112.64,-261.89"/>
</g>
<!-- C -->
<g id="node3" class="node">
<title>C</title>
<ellipse fill="#9370db" stroke="black" cx="180" cy="-235.26" rx="18" ry="18"/>
<text text-anchor="middle" x="180" y="-229.83" font-family="Times New Roman,serif" font-size="14.00">C</text>
</g>
<!-- A&#45;&gt;C -->
<g id="edge2" class="edge">
<title>A&#45;&gt;C</title>
<path fill="none" stroke="black" d="M136.67,-292.43C143.99,-282.94 153.88,-270.12 162.36,-259.12"/>
<polygon fill="black" stroke="black" points="165.09,-261.31 168.43,-251.26 159.55,-257.04 165.09,-261.31"/>
</g>
<!-- X -->
<g id="node4" class="node">
<title>X</title>
<ellipse fill="#9370db" stroke="black" cx="18" cy="-163.26" rx="18" ry="18"/>
<text text-anchor="middle" x="18" y="-157.83" font-family="Times New Roman,serif" font-size="14.00">X</text>
</g>
<!-- B&#45;&gt;X -->
<g id="edge3" class="edge">
<title>B&#45;&gt;X</title>
<path fill="none" stroke="black" d="M85.62,-222.7C73.2,-211.96 54.46,-195.77 39.86,-183.15"/>
<polygon fill="black" stroke="black" points="42.4,-180.71 32.54,-176.82 37.82,-186.01 42.4,-180.71"/>
</g>
<!-- Y -->
<g id="node5" class="node">
<title>Y</title>
<ellipse fill="#9370db" stroke="black" cx="72" cy="-163.26" rx="18" ry="18"/>
<text text-anchor="middle" x="72" y="-157.83" font-family="Times New Roman,serif" font-size="14.00">Y</text>
</g>
<!-- B&#45;&gt;Y -->
<g id="edge4" class="edge">
<title>B&#45;&gt;Y</title>
<path fill="none" stroke="black" d="M92.74,-218.02C89.64,-209.98 85.81,-200.07 82.3,-190.95"/>
<polygon fill="black" stroke="black" points="85.64,-189.89 78.77,-181.82 79.11,-192.41 85.64,-189.89"/>
</g>
<!-- Z -->
<g id="node6" class="node">
<title>Z</title>
<ellipse fill="#9370db" stroke="black" cx="126" cy="-163.26" rx="18" ry="18"/>
<text text-anchor="middle" x="126" y="-157.83" font-family="Times New Roman,serif" font-size="14.00">Z</text>
</g>
<!-- B&#45;&gt;Z -->
<g id="edge5" class="edge">
<title>B&#45;&gt;Z</title>
<path fill="none" stroke="black" d="M105.26,-218.02C108.36,-209.98 112.19,-200.07 115.7,-190.95"/>
<polygon fill="black" stroke="black" points="118.89,-192.41 119.23,-181.82 112.36,-189.89 118.89,-192.41"/>
</g>
<!-- D -->
<g id="node10" class="node">
<title>D</title>
<ellipse fill="#9370db" stroke="black" cx="180" cy="-163.26" rx="18" ry="18"/>
<text text-anchor="middle" x="180" y="-157.83" font-family="Times New Roman,serif" font-size="14.00">D</text>
</g>
<!-- C&#45;&gt;D -->
<g id="edge9" class="edge">
<title>C&#45;&gt;D</title>
<path fill="none" stroke="black" d="M180,-216.95C180,-209.66 180,-200.98 180,-192.79"/>
<polygon fill="black" stroke="black" points="183.5,-192.88 180,-182.88 176.5,-192.88 183.5,-192.88"/>
</g>
<!-- E -->
<g id="node11" class="node">
<title>E</title>
<ellipse fill="#9370db" stroke="black" cx="234" cy="-163.26" rx="18" ry="18"/>
<text text-anchor="middle" x="234" y="-157.83" font-family="Times New Roman,serif" font-size="14.00">E</text>
</g>
<!-- C&#45;&gt;E -->
<g id="edge10" class="edge">
<title>C&#45;&gt;E</title>
<path fill="none" stroke="black" d="M190.67,-220.43C197.99,-210.94 207.88,-198.12 216.36,-187.12"/>
<polygon fill="black" stroke="black" points="219.09,-189.31 222.43,-179.26 213.55,-185.04 219.09,-189.31"/>
</g>
<!-- M -->
<g id="node7" class="node">
<title>M</title>
<ellipse fill="#9370db" stroke="black" cx="44" cy="-90.63" rx="18.63" ry="18.63"/>
<text text-anchor="middle" x="44" y="-85.2" font-family="Times New Roman,serif" font-size="14.00">M</text>
</g>
<!-- Y&#45;&gt;M -->
<g id="edge6" class="edge">
<title>Y&#45;&gt;M</title>
<path fill="none" stroke="black" d="M65.65,-146.23C62.4,-138.04 58.36,-127.85 54.65,-118.5"/>
<polygon fill="black" stroke="black" points="58.02,-117.5 51.08,-109.49 51.51,-120.08 58.02,-117.5"/>
</g>
<!-- N -->
<g id="node8" class="node">
<title>N</title>
<ellipse fill="#9370db" stroke="black" cx="99" cy="-90.63" rx="18" ry="18"/>
<text text-anchor="middle" x="99" y="-85.2" font-family="Times New Roman,serif" font-size="14.00">N</text>
</g>
<!-- Y&#45;&gt;N -->
<g id="edge7" class="edge">
<title>Y&#45;&gt;N</title>
<path fill="none" stroke="black" d="M78.26,-145.88C81.36,-137.77 85.19,-127.76 88.7,-118.56"/>
<polygon fill="black" stroke="black" points="91.93,-119.93 92.23,-109.34 85.39,-117.43 91.93,-119.93"/>
</g>
<!-- O -->
<g id="node9" class="node">
<title>O</title>
<ellipse fill="#9370db" stroke="black" cx="99" cy="-18" rx="18" ry="18"/>
<text text-anchor="middle" x="99" y="-12.57" font-family="Times New Roman,serif" font-size="14.00">O</text>
</g>
<!-- N&#45;&gt;O -->
<g id="edge8" class="edge">
<title>N&#45;&gt;O</title>
<path fill="none" stroke="black" d="M99,-72.17C99,-64.73 99,-55.85 99,-47.5"/>
<polygon fill="black" stroke="black" points="102.5,-47.77 99,-37.77 95.5,-47.77 102.5,-47.77"/>
</g>
<!-- F -->
<g id="node12" class="node">
<title>F</title>
<ellipse fill="#9370db" stroke="black" cx="180" cy="-90.63" rx="18" ry="18"/>
<text text-anchor="middle" x="180" y="-85.2" font-family="Times New Roman,serif" font-size="14.00">F</text>
</g>
<!-- E&#45;&gt;F -->
<g id="edge11" class="edge">
<title>E&#45;&gt;F</title>
<path fill="none" stroke="black" d="M223.33,-148.3C216.01,-138.73 206.12,-125.79 197.64,-114.7"/>
<polygon fill="black" stroke="black" points="200.42,-112.57 191.57,-106.76 194.86,-116.83 200.42,-112.57"/>
</g>
<!-- G -->
<g id="node13" class="node">
<title>G</title>
<ellipse fill="#9370db" stroke="black" cx="234" cy="-90.63" rx="18" ry="18"/>
<text text-anchor="middle" x="234" y="-85.2" font-family="Times New Roman,serif" font-size="14.00">G</text>
</g>
<!-- E&#45;&gt;G -->
<g id="edge12" class="edge">
<title>E&#45;&gt;G</title>
<path fill="none" stroke="black" d="M234,-144.8C234,-137.36 234,-128.48 234,-120.13"/>
<polygon fill="black" stroke="black" points="237.5,-120.4 234,-110.4 230.5,-120.4 237.5,-120.4"/>
</g>
<!-- H -->
<g id="node14" class="node">
<title>H</title>
<ellipse fill="#9370db" stroke="black" cx="288" cy="-90.63" rx="18" ry="18"/>
<text text-anchor="middle" x="288" y="-85.2" font-family="Times New Roman,serif" font-size="14.00">H</text>
</g>
<!-- E&#45;&gt;H -->
<g id="edge13" class="edge">
<title>E&#45;&gt;H</title>
<path fill="none" stroke="black" d="M244.67,-148.3C251.99,-138.73 261.88,-125.79 270.36,-114.7"/>
<polygon fill="black" stroke="black" points="273.14,-116.83 276.43,-106.76 267.58,-112.57 273.14,-116.83"/>
</g>
</g>
</svg>
