<?xml version="1.0" encoding="UTF-8" standalone="no"?>
<!DOCTYPE svg PUBLIC "-//W3C//DTD SVG 1.1//EN"
 "http://www.w3.org/Graphics/SVG/1.1/DTD/svg11.dtd">
<!-- Generated by graphviz version 10.0.1 (20240210.2158)
 -->
<!-- Title: ArvoreBinaria Pages: 1 -->
<svg width="152pt" height="260pt"
 viewBox="0.00 0.00 152.00 260.00" xmlns="http://www.w3.org/2000/svg" xmlns:xlink="http://www.w3.org/1999/xlink">
<g id="graph0" class="graph" transform="scale(1 1) rotate(0) translate(4 256)">
<title>ArvoreBinaria</title>
<polygon fill="white" stroke="none" points="-4,4 -4,-256 148,-256 148,4 -4,4"/>
<!-- A -->
<g id="node1" class="node">
<title>A</title>
<ellipse fill="#9370db" stroke="black" cx="72" cy="-234" rx="18" ry="18"/>
<text text-anchor="middle" x="72" y="-228.57" font-family="Times New Roman,serif" font-size="14.00">A</text>
</g>
<!-- B -->
<g id="node2" class="node">
<title>B</title>
<ellipse fill="#9370db" stroke="black" cx="18" cy="-162" rx="18" ry="18"/>
<text text-anchor="middle" x="18" y="-156.57" font-family="Times New Roman,serif" font-size="14.00">B</text>
</g>
<!-- A&#45;&gt;B -->
<g id="edge1" class="edge">
<title>A&#45;&gt;B</title>
<path fill="none" stroke="black" d="M61.33,-219.17C54.01,-209.68 44.12,-196.86 35.64,-185.86"/>
<polygon fill="black" stroke="black" points="38.45,-183.78 29.57,-178 32.91,-188.06 38.45,-183.78"/>
</g>
<!-- C -->
<g id="node3" class="node">
<title>C</title>
<ellipse fill="#9370db" stroke="black" cx="72" cy="-162" rx="18" ry="18"/>
<text text-anchor="middle" x="72" y="-156.57" font-family="Times New Roman,serif" font-size="14.00">C</text>
</g>
<!-- A&#45;&gt;C -->
<g id="edge2" class="edge">
<title>A&#45;&gt;C</title>
<path fill="none" stroke="black" d="M72,-215.7C72,-208.41 72,-199.73 72,-191.54"/>
<polygon fill="black" stroke="black" points="75.5,-191.62 72,-181.62 68.5,-191.62 75.5,-191.62"/>
</g>
<!-- G -->
<g id="node4" class="node">
<title>G</title>
<ellipse fill="#9370db" stroke="black" cx="126" cy="-162" rx="18" ry="18"/>
<text text-anchor="middle" x="126" y="-156.57" font-family="Times New Roman,serif" font-size="14.00">G</text>
</g>
<!-- A&#45;&gt;G -->
<g id="edge3" class="edge">
<title>A&#45;&gt;G</title>
<path fill="none" stroke="black" d="M82.67,-219.17C89.99,-209.68 99.88,-196.86 108.36,-185.86"/>
<polygon fill="black" stroke="black" points="111.09,-188.06 114.43,-178 105.55,-183.78 111.09,-188.06"/>
</g>
<!-- D -->
<g id="node5" class="node">
<title>D</title>
<ellipse fill="#9370db" stroke="black" cx="72" cy="-90" rx="18" ry="18"/>
<text text-anchor="middle" x="72" y="-84.58" font-family="Times New Roman,serif" font-size="14.00">D</text>
</g>
<!-- C&#45;&gt;D -->
<g id="edge4" class="edge">
<title>C&#45;&gt;D</title>
<path fill="none" stroke="black" d="M72,-143.7C72,-136.41 72,-127.73 72,-119.54"/>
<polygon fill="black" stroke="black" points="75.5,-119.62 72,-109.62 68.5,-119.62 75.5,-119.62"/>
</g>
<!-- H -->
<g id="node8" class="node">
<title>H</title>
<ellipse fill="#9370db" stroke="black" cx="126" cy="-90" rx="18" ry="18"/>
<text text-anchor="middle" x="126" y="-84.58" font-family="Times New Roman,serif" font-size="14.00">H</text>
</g>
<!-- G&#45;&gt;H -->
<g id="edge7" class="edge">
<title>G&#45;&gt;H</title>
<path fill="none" stroke="black" d="M126,-143.7C126,-136.41 126,-127.73 126,-119.54"/>
<polygon fill="black" stroke="black" points="129.5,-119.62 126,-109.62 122.5,-119.62 129.5,-119.62"/>
</g>
<!-- E -->
<g id="node6" class="node">
<title>E</title>
<ellipse fill="#9370db" stroke="black" cx="18" cy="-18" rx="18" ry="18"/>
<text text-anchor="middle" x="18" y="-12.57" font-family="Times New Roman,serif" font-size="14.00">E</text>
</g>
<!-- D&#45;&gt;E -->
<g id="edge5" class="edge">
<title>D&#45;&gt;E</title>
<path fill="none" stroke="black" d="M61.33,-75.17C54.01,-65.68 44.12,-52.86 35.64,-41.86"/>
<polygon fill="black" stroke="black" points="38.45,-39.78 29.57,-34 32.91,-44.06 38.45,-39.78"/>
</g>
<!-- F -->
<g id="node7" class="node">
<title>F</title>
<ellipse fill="#9370db" stroke="black" cx="72" cy="-18" rx="18" ry="18"/>
<text text-anchor="middle" x="72" y="-12.57" font-family="Times New Roman,serif" font-size="14.00">F</text>
</g>
<!-- D&#45;&gt;F -->
<g id="edge6" class="edge">
<title>D&#45;&gt;F</title>
<path fill="none" stroke="black" d="M72,-71.7C72,-64.41 72,-55.73 72,-47.54"/>
<polygon fill="black" stroke="black" points="75.5,-47.62 72,-37.62 68.5,-47.62 75.5,-47.62"/>
</g>
<!-- I -->
<g id="node9" class="node">
<title>I</title>
<ellipse fill="#9370db" stroke="black" cx="126" cy="-18" rx="18" ry="18"/>
<text text-anchor="middle" x="126" y="-12.57" font-family="Times New Roman,serif" font-size="14.00">I</text>
</g>
<!-- H&#45;&gt;I -->
<g id="edge8" class="edge">
<title>H&#45;&gt;I</title>
<path fill="none" stroke="black" d="M126,-71.7C126,-64.41 126,-55.73 126,-47.54"/>
<polygon fill="black" stroke="black" points="129.5,-47.62 126,-37.62 122.5,-47.62 129.5,-47.62"/>
</g>
</g>
</svg>
