<?xml version="1.0" encoding="UTF-8" standalone="no"?>
<!DOCTYPE svg PUBLIC "-//W3C//DTD SVG 1.1//EN"
 "http://www.w3.org/Graphics/SVG/1.1/DTD/svg11.dtd">
<!-- Generated by graphviz version 10.0.1 (20240210.2158)
 -->
<!-- Title: ArvoreBinaria Pages: 1 -->
<svg width="130pt" height="273pt"
 viewBox="0.00 0.00 129.63 273.02" xmlns="http://www.w3.org/2000/svg" xmlns:xlink="http://www.w3.org/1999/xlink">
<g id="graph0" class="graph" transform="scale(1 1) rotate(0) translate(4 269.02)">
<title>ArvoreBinaria</title>
<polygon fill="white" stroke="none" points="-4,4 -4,-269.02 125.63,-269.02 125.63,4 -4,4"/>
<!-- 54 -->
<g id="node1" class="node">
<title>54</title>
<ellipse fill="#add8e6" stroke="black" cx="46" cy="-245.39" rx="19.63" ry="19.63"/>
<text text-anchor="middle" x="46" y="-239.97" font-family="Times New Roman,serif" font-size="14.00">54</text>
</g>
<!-- 6 -->
<g id="node2" class="node">
<title>6</title>
<ellipse fill="#add8e6" stroke="black" cx="18" cy="-170.14" rx="18" ry="18"/>
<text text-anchor="middle" x="18" y="-164.71" font-family="Times New Roman,serif" font-size="14.00">6</text>
</g>
<!-- 54&#45;&gt;6 -->
<g id="edge1" class="edge">
<title>54&#45;&gt;6</title>
<path fill="none" stroke="black" d="M39.22,-226.66C35.92,-218.01 31.88,-207.44 28.21,-197.84"/>
<polygon fill="black" stroke="black" points="31.52,-196.71 24.68,-188.62 24.98,-199.21 31.52,-196.71"/>
</g>
<!-- 70 -->
<g id="node3" class="node">
<title>70</title>
<ellipse fill="#add8e6" stroke="black" cx="74" cy="-170.14" rx="19.63" ry="19.63"/>
<text text-anchor="middle" x="74" y="-164.71" font-family="Times New Roman,serif" font-size="14.00">70</text>
</g>
<!-- 54&#45;&gt;70 -->
<g id="edge2" class="edge">
<title>54&#45;&gt;70</title>
<path fill="none" stroke="black" d="M52.78,-226.66C55.88,-218.53 59.64,-208.69 63.13,-199.57"/>
<polygon fill="black" stroke="black" points="66.35,-200.96 66.65,-190.37 59.81,-198.46 66.35,-200.96"/>
</g>
<!-- 56 -->
<g id="node4" class="node">
<title>56</title>
<ellipse fill="#add8e6" stroke="black" cx="45" cy="-94.88" rx="19.63" ry="19.63"/>
<text text-anchor="middle" x="45" y="-89.46" font-family="Times New Roman,serif" font-size="14.00">56</text>
</g>
<!-- 70&#45;&gt;56 -->
<g id="edge3" class="edge">
<title>70&#45;&gt;56</title>
<path fill="none" stroke="black" d="M66.98,-151.4C63.76,-143.28 59.87,-133.44 56.26,-124.32"/>
<polygon fill="black" stroke="black" points="59.55,-123.12 52.61,-115.11 53.04,-125.7 59.55,-123.12"/>
</g>
<!-- 80 -->
<g id="node5" class="node">
<title>80</title>
<ellipse fill="#add8e6" stroke="black" cx="102" cy="-94.88" rx="19.63" ry="19.63"/>
<text text-anchor="middle" x="102" y="-89.46" font-family="Times New Roman,serif" font-size="14.00">80</text>
</g>
<!-- 70&#45;&gt;80 -->
<g id="edge4" class="edge">
<title>70&#45;&gt;80</title>
<path fill="none" stroke="black" d="M80.78,-151.4C83.88,-143.28 87.64,-133.44 91.13,-124.32"/>
<polygon fill="black" stroke="black" points="94.35,-125.71 94.65,-115.12 87.81,-123.21 94.35,-125.71"/>
</g>
<!-- 63 -->
<g id="node6" class="node">
<title>63</title>
<ellipse fill="#add8e6" stroke="black" cx="45" cy="-19.63" rx="19.63" ry="19.63"/>
<text text-anchor="middle" x="45" y="-14.2" font-family="Times New Roman,serif" font-size="14.00">63</text>
</g>
<!-- 56&#45;&gt;63 -->
<g id="edge5" class="edge">
<title>56&#45;&gt;63</title>
<path fill="none" stroke="black" d="M45,-75.02C45,-67.73 45,-59.19 45,-51.08"/>
<polygon fill="black" stroke="black" points="48.5,-51.2 45,-41.2 41.5,-51.2 48.5,-51.2"/>
</g>
<!-- 92 -->
<g id="node7" class="node">
<title>92</title>
<ellipse fill="#add8e6" stroke="black" cx="102" cy="-19.63" rx="19.63" ry="19.63"/>
<text text-anchor="middle" x="102" y="-14.2" font-family="Times New Roman,serif" font-size="14.00">92</text>
</g>
<!-- 80&#45;&gt;92 -->
<g id="edge6" class="edge">
<title>80&#45;&gt;92</title>
<path fill="none" stroke="black" d="M102,-75.02C102,-67.73 102,-59.19 102,-51.08"/>
<polygon fill="black" stroke="black" points="105.5,-51.2 102,-41.2 98.5,-51.2 105.5,-51.2"/>
</g>
</g>
</svg>
