<?xml version="1.0" encoding="UTF-8" standalone="no"?>
<!DOCTYPE svg PUBLIC "-//W3C//DTD SVG 1.1//EN"
 "http://www.w3.org/Graphics/SVG/1.1/DTD/svg11.dtd">
<!-- Generated by graphviz version 10.0.1 (20240210.2158)
 -->
<!-- Title: ArvoreBinaria Pages: 1 -->
<svg width="213pt" height="270pt"
 viewBox="0.00 0.00 212.63 269.76" xmlns="http://www.w3.org/2000/svg" xmlns:xlink="http://www.w3.org/1999/xlink">
<g id="graph0" class="graph" transform="scale(1 1) rotate(0) translate(4 265.76)">
<title>ArvoreBinaria</title>
<polygon fill="white" stroke="none" points="-4,4 -4,-265.76 208.63,-265.76 208.63,4 -4,4"/>
<!-- 12 -->
<g id="node1" class="node">
<title>12</title>
<ellipse fill="#add8e6" stroke="black" cx="100" cy="-242.14" rx="19.63" ry="19.63"/>
<text text-anchor="middle" x="100" y="-236.71" font-family="Times New Roman,serif" font-size="14.00">12</text>
</g>
<!-- 5 -->
<g id="node2" class="node">
<title>5</title>
<ellipse fill="#add8e6" stroke="black" cx="72" cy="-166.88" rx="18" ry="18"/>
<text text-anchor="middle" x="72" y="-161.46" font-family="Times New Roman,serif" font-size="14.00">5</text>
</g>
<!-- 12&#45;&gt;5 -->
<g id="edge1" class="edge">
<title>12&#45;&gt;5</title>
<path fill="none" stroke="black" d="M93.22,-223.4C89.92,-214.76 85.88,-204.18 82.21,-194.59"/>
<polygon fill="black" stroke="black" points="85.52,-193.46 78.68,-185.37 78.98,-195.96 85.52,-193.46"/>
</g>
<!-- 17 -->
<g id="node3" class="node">
<title>17</title>
<ellipse fill="#add8e6" stroke="black" cx="128" cy="-166.88" rx="19.63" ry="19.63"/>
<text text-anchor="middle" x="128" y="-161.46" font-family="Times New Roman,serif" font-size="14.00">17</text>
</g>
<!-- 12&#45;&gt;17 -->
<g id="edge2" class="edge">
<title>12&#45;&gt;17</title>
<path fill="none" stroke="black" d="M106.78,-223.4C109.88,-215.28 113.64,-205.44 117.13,-196.32"/>
<polygon fill="black" stroke="black" points="120.35,-197.71 120.65,-187.12 113.81,-195.21 120.35,-197.71"/>
</g>
<!-- 3 -->
<g id="node4" class="node">
<title>3</title>
<ellipse fill="#add8e6" stroke="black" cx="18" cy="-91.63" rx="18" ry="18"/>
<text text-anchor="middle" x="18" y="-86.2" font-family="Times New Roman,serif" font-size="14.00">3</text>
</g>
<!-- 5&#45;&gt;3 -->
<g id="edge3" class="edge">
<title>5&#45;&gt;3</title>
<path fill="none" stroke="black" d="M61.59,-151.76C54.12,-141.62 43.88,-127.74 35.21,-115.97"/>
<polygon fill="black" stroke="black" points="38.03,-113.9 29.28,-107.93 32.39,-118.05 38.03,-113.9"/>
</g>
<!-- 7 -->
<g id="node5" class="node">
<title>7</title>
<ellipse fill="#add8e6" stroke="black" cx="72" cy="-91.63" rx="18" ry="18"/>
<text text-anchor="middle" x="72" y="-86.2" font-family="Times New Roman,serif" font-size="14.00">7</text>
</g>
<!-- 5&#45;&gt;7 -->
<g id="edge4" class="edge">
<title>5&#45;&gt;7</title>
<path fill="none" stroke="black" d="M72,-148.52C72,-140.46 72,-130.66 72,-121.53"/>
<polygon fill="black" stroke="black" points="75.5,-121.63 72,-111.63 68.5,-121.63 75.5,-121.63"/>
</g>
<!-- 13 -->
<g id="node8" class="node">
<title>13</title>
<ellipse fill="#add8e6" stroke="black" cx="128" cy="-91.63" rx="19.63" ry="19.63"/>
<text text-anchor="middle" x="128" y="-86.2" font-family="Times New Roman,serif" font-size="14.00">13</text>
</g>
<!-- 17&#45;&gt;13 -->
<g id="edge7" class="edge">
<title>17&#45;&gt;13</title>
<path fill="none" stroke="black" d="M128,-147.02C128,-139.73 128,-131.19 128,-123.08"/>
<polygon fill="black" stroke="black" points="131.5,-123.2 128,-113.2 124.5,-123.2 131.5,-123.2"/>
</g>
<!-- 19 -->
<g id="node9" class="node">
<title>19</title>
<ellipse fill="#add8e6" stroke="black" cx="185" cy="-91.63" rx="19.63" ry="19.63"/>
<text text-anchor="middle" x="185" y="-86.2" font-family="Times New Roman,serif" font-size="14.00">19</text>
</g>
<!-- 17&#45;&gt;19 -->
<g id="edge8" class="edge">
<title>17&#45;&gt;19</title>
<path fill="none" stroke="black" d="M139.81,-150.7C147.45,-140.88 157.57,-127.88 166.29,-116.67"/>
<polygon fill="black" stroke="black" points="168.9,-119.02 172.28,-108.98 163.37,-114.72 168.9,-119.02"/>
</g>
<!-- 1 -->
<g id="node6" class="node">
<title>1</title>
<ellipse fill="#add8e6" stroke="black" cx="18" cy="-18" rx="18" ry="18"/>
<text text-anchor="middle" x="18" y="-12.57" font-family="Times New Roman,serif" font-size="14.00">1</text>
</g>
<!-- 3&#45;&gt;1 -->
<g id="edge5" class="edge">
<title>3&#45;&gt;1</title>
<path fill="none" stroke="black" d="M18,-73.29C18,-65.6 18,-56.35 18,-47.69"/>
<polygon fill="black" stroke="black" points="21.5,-47.94 18,-37.94 14.5,-47.94 21.5,-47.94"/>
</g>
<!-- 9 -->
<g id="node7" class="node">
<title>9</title>
<ellipse fill="#add8e6" stroke="black" cx="72" cy="-18" rx="18" ry="18"/>
<text text-anchor="middle" x="72" y="-12.57" font-family="Times New Roman,serif" font-size="14.00">9</text>
</g>
<!-- 7&#45;&gt;9 -->
<g id="edge6" class="edge">
<title>7&#45;&gt;9</title>
<path fill="none" stroke="black" d="M72,-73.29C72,-65.6 72,-56.35 72,-47.69"/>
<polygon fill="black" stroke="black" points="75.5,-47.94 72,-37.94 68.5,-47.94 75.5,-47.94"/>
</g>
</g>
</svg>
